<svg width="40" height="40" viewBox="0 0 40 40" fill="none" xmlns="http://www.w3.org/2000/svg">
<circle opacity="0.2" cx="20" cy="20" r="19.5" stroke="white"/>
<path d="M21.2795 20.0027L26.7319 14.5504C27.0851 14.1971 27.0851 13.6225 26.7319 13.2692C26.3786 12.9159 25.804 12.9159 25.4507 13.2692L19.9984 18.7215L14.5461 13.265C14.1928 12.9117 13.6182 12.9117 13.265 13.265C12.9117 13.6182 12.9117 14.1928 13.265 14.5461L18.7173 19.9984L13.265 25.455C12.9117 25.8082 12.9117 26.3828 13.265 26.7361C13.4437 26.9149 13.6736 27 13.9077 27C14.1417 27 14.3716 26.9106 14.5504 26.7361L20.0027 21.2838L25.455 26.7361C25.6337 26.9149 25.8636 27 26.0977 27C26.3318 27 26.5616 26.9106 26.7404 26.7361C27.0936 26.3828 27.0936 25.8082 26.7404 25.455L21.2795 20.0027Z" fill="white"/>
</svg>
