<svg width="58" height="48" viewBox="0 0 58 48" fill="none" xmlns="http://www.w3.org/2000/svg">
<path d="M31.5141 41.8635L39.5867 37.1866C40.1151 36.8808 40.4461 36.3203 40.4602 35.7079L40.9748 13.0032C40.9895 12.3627 40.6544 11.7652 40.1017 11.445L32.2383 6.88944C31.0886 6.22337 29.6477 7.03633 29.6175 8.36795L28.8934 40.3049C28.8623 41.6725 30.3337 42.5472 31.5141 41.8635Z" fill="#E6E6E6"/>
<path d="M31.5141 41.8635L39.5867 37.1866C40.1151 36.8808 40.4461 36.3203 40.4602 35.7079L40.9748 13.0032C40.9895 12.3627 40.6544 11.7652 40.1017 11.445L32.2383 6.88944C31.0886 6.22337 29.6477 7.03633 29.6175 8.36795L28.8934 40.3049C28.8623 41.6725 30.3337 42.5472 31.5141 41.8635Z" fill="white"/>
<path d="M35.1147 39.7775L39.5867 37.1866C40.1151 36.8808 40.4461 36.3203 40.4602 35.7079L40.9748 13.0032C40.9895 12.3627 40.6545 11.7652 40.1017 11.445L35.6233 8.85052L35.1147 39.7775Z" fill="white"/>
<path d="M35.1147 39.7775L39.5867 37.1866C40.1151 36.8808 40.4461 36.3203 40.4602 35.7079L40.9748 13.0032C40.9895 12.3627 40.6545 11.7652 40.1017 11.445L35.6233 8.85052L35.1147 39.7775Z" fill="#E5D9F0"/>
<path d="M44.9915 34.0557L52.0931 29.9417C56.5233 27.375 56.523 20.9583 52.0928 18.3917L45.3663 14.4948C44.2166 13.8287 42.7757 14.6417 42.7455 15.9733L42.3708 32.4971C42.3399 33.8644 43.8115 34.7396 44.9915 34.0557Z" fill="#E6E6E6"/>
<path d="M44.9915 34.0557L52.0931 29.9417C56.5233 27.375 56.523 20.9583 52.0928 18.3917L45.3663 14.4948C44.2166 13.8287 42.7757 14.6417 42.7455 15.9733L42.3708 32.4971C42.3399 33.8644 43.8115 34.7396 44.9915 34.0557Z" fill="white"/>
<path d="M48.7848 31.8581L52.0929 29.942C56.5233 27.375 56.523 20.9583 52.0928 18.3917L49.3823 16.8215L48.7848 31.8581Z" fill="white"/>
<path d="M48.7848 31.8581L52.0929 29.942C56.5233 27.375 56.523 20.9583 52.0928 18.3917L49.3823 16.8215L48.7848 31.8581Z" fill="#E5D9F0"/>
<path d="M26.1099 44.9947C26.6383 44.6889 26.9693 44.1283 26.9834 43.516L27.8245 6.39933C27.8532 5.14174 27.1957 3.96826 26.1098 3.33913C21.6795 0.772542 16.1414 3.98058 16.1417 9.11405L16.1419 39.2199C16.1413 44.3533 21.6794 47.5617 26.1099 44.9947Z" fill="#E6E6E6"/>
<path d="M26.1099 44.9947C26.6383 44.6889 26.9693 44.1283 26.9834 43.516L27.8245 6.39933C27.8532 5.14174 27.1957 3.96826 26.1098 3.33913C21.6795 0.772542 16.1414 3.98058 16.1417 9.11405L16.1419 39.2199C16.1413 44.3533 21.6794 47.5617 26.1099 44.9947Z" fill="white"/>
<path d="M26.1099 44.9947C26.6383 44.6889 26.9693 44.1283 26.9834 43.516L27.8245 6.39933C27.8532 5.14174 27.1957 3.96826 26.1098 3.33914C24.9817 2.68558 23.782 2.41009 22.6199 2.44217L21.9241 45.8344C23.2965 46.0198 24.7544 45.7799 26.1099 44.9947Z" fill="white"/>
<path d="M26.1099 44.9947C26.6383 44.6889 26.9693 44.1283 26.9834 43.516L27.8245 6.39933C27.8532 5.14174 27.1957 3.96826 26.1098 3.33914C24.9817 2.68558 23.782 2.41009 22.6199 2.44217L21.9241 45.8344C23.2965 46.0198 24.7544 45.7799 26.1099 44.9947Z" fill="#E5D9F0"/>
</svg>
